<?xml version="1.0" encoding="utf-8"?>
<!-- Generator: Adobe Illustrator 19.0.0, SVG Export Plug-In . SVG Version: 6.00 Build 0)  -->
<svg version="1.1" id="Layer_1" xmlns="http://www.w3.org/2000/svg" xmlns:xlink="http://www.w3.org/1999/xlink" x="0px" y="0px"
	 viewBox="0 0 96 96" style="enable-background:new 0 0 96 96;" xml:space="preserve">
<style type="text/css">
	.st0{fill:#333333;}
</style>
<g id="XMLID_1_">
	<path id="XMLID_3_" class="st0" d="M48,20.5c-15.2,0-27.5,12.3-27.5,27.5c0,11.3,6.8,20.9,16.5,25.2c-0.1-1.9,0-4.2,0.5-6.3
		c0.5-2.2,3.5-15,3.5-15s-0.9-1.8-0.9-4.4c0-4.1,2.4-7.1,5.3-7.1c2.5,0,3.7,1.9,3.7,4.1c0,2.5-1.6,6.3-2.4,9.8
		c-0.7,2.9,1.5,5.3,4.3,5.3c5.2,0,8.7-6.7,8.7-14.6c0-6-4.1-10.5-11.4-10.5c-8.3,0-13.5,6.2-13.5,13.2c0,2.4,0.7,4.1,1.8,5.4
		c0.5,0.6,0.6,0.8,0.4,1.5c-0.1,0.5-0.4,1.7-0.6,2.2c-0.2,0.7-0.7,0.9-1.4,0.7c-3.8-1.6-5.6-5.8-5.6-10.5c0-7.8,6.6-17.2,19.7-17.2
		c10.5,0,17.4,7.6,17.4,15.8c0,10.8-6,18.8-14.8,18.8c-3,0-5.8-1.6-6.7-3.4c0,0-1.6,6.3-1.9,7.6c-0.6,2.1-1.7,4.2-2.8,5.9
		c2.5,0.7,5.1,1.1,7.8,1.1c15.2,0,27.5-12.3,27.5-27.5C75.5,32.8,63.2,20.5,48,20.5z"/>
</g>
</svg>
