<?xml version="1.0" encoding="utf-8"?>
<!-- Generator: Adobe Illustrator 19.0.0, SVG Export Plug-In . SVG Version: 6.00 Build 0)  -->
<svg version="1.1" id="Layer_1" xmlns="http://www.w3.org/2000/svg" xmlns:xlink="http://www.w3.org/1999/xlink" x="0px" y="0px"
	 viewBox="0 0 96 96" style="enable-background:new 0 0 96 96;" xml:space="preserve">
<g id="XMLID_1_">
	<path id="XMLID_5_" d="M48,20.5c-15.2,0-27.5,12.3-27.5,27.5S32.8,75.5,48,75.5S75.5,63.2,75.5,48S63.2,20.5,48,20.5z M48,71.8
		c-2.5,0-4.8-0.4-7.1-1.1c1-1.6,2.4-4.2,3-6.2c0.3-1.1,1.5-5.7,1.5-5.7c0.8,1.5,3.1,2.7,5.5,2.7c7.2,0,12.4-6.6,12.4-14.8
		c0-7.9-6.4-13.8-14.7-13.8c-10.3,0-15.7,6.9-15.7,14.4c0,3.5,1.9,7.8,4.8,9.2c0.5,0.2,0.7,0.1,0.8-0.3c0.1-0.3,0.5-1.9,0.7-2.7
		l-0.2-0.7c-1-1.2-1.8-3.4-1.8-5.4c0-5.3,4-10.3,10.8-10.3c5.9,0,9.9,4,9.9,9.7c0,6.4-3.3,10.9-7.5,10.9c-2.3,0-4.1-1.9-3.5-4.3
		c0.7-2.8,2-5.9,2-7.9c0-1.8-1-3.4-3-3.4c-2.4,0-4.3,2.5-4.3,5.8c0,2.1,0.7,3.5,0.7,3.5s-2.4,10-2.8,11.8c-0.5,2.1-0.3,5-0.1,6.8
		C30.5,66.7,24.2,58.1,24.2,48c0-13.2,10.7-23.8,23.8-23.8c13.2,0,23.8,10.7,23.8,23.8S61.2,71.8,48,71.8L48,71.8z"/>
</g>
</svg>
