<?xml version="1.0" encoding="utf-8"?>
<!-- Generator: Adobe Illustrator 19.0.0, SVG Export Plug-In . SVG Version: 6.00 Build 0)  -->
<svg version="1.1" id="Layer_1" xmlns="http://www.w3.org/2000/svg" xmlns:xlink="http://www.w3.org/1999/xlink" x="0px" y="0px"
	 viewBox="0 0 96 96" style="enable-background:new 0 0 96 96;" xml:space="preserve">
<style type="text/css">
	.st0{fill:#6c63ff;}
	.st1{fill:#FFFFFF;}
</style>
<g id="XMLID_1_">
	<circle id="XMLID_3_" class="st0" cx="48" cy="48" r="27.5"/>
	<path id="XMLID_4_" class="st1" d="M50.5,56.3c6.1,0,10.2-5.6,10.2-13.2c0-5.7-4.7-11-11.9-11c-8.9,0-13.5,6.5-13.5,12
		c0,3.3,1.2,6.2,3.9,7.3c0.4,0.2,0.8,0,0.9-0.5c0.1-0.3,0.3-1.2,0.4-1.5c0.1-0.5,0.1-0.7-0.3-1.1c-0.8-0.9-1.2-2.1-1.2-3.8
		c0-4.9,3.6-9.2,9.3-9.2c5.1,0,7.8,3.2,7.8,7.4c0,5.5-2.4,10.2-6,10.2c-2,0-3.4-1.7-3-3.7c0.6-2.4,1.7-5.1,1.7-6.8
		c0-1.6-0.8-2.9-2.5-2.9c-2,0-3.6,2.1-3.6,5c0,1.8,0.6,3,0.6,3s-2.1,8.9-2.4,10.5c-0.3,1.4-0.4,3-0.3,4.3c0.1,1.2,1.3,2.1,2.3,0.8
		c0.7-1.1,1.5-2.6,1.8-4c0.2-0.9,1.3-5.3,1.3-5.3C46.6,55.2,48.5,56.3,50.5,56.3z"/>
</g>
</svg>
